<mxfile host="Electron" modified="2023-05-07T00:12:13.508Z" agent="Mozilla/5.0 (Macintosh; Intel Mac OS X 10_15_7) AppleWebKit/537.36 (KHTML, like Gecko) draw.io/21.2.8 Chrome/112.0.5615.165 Electron/24.2.0 Safari/537.36" etag="DzZ6dnobqL9TKSVMm5vV" version="21.2.8" type="device">
  <diagram name="Page-1" id="dCN76jGf5toe5jXvvONL">
    <mxGraphModel dx="1357" dy="1165" grid="1" gridSize="10" guides="1" tooltips="1" connect="1" arrows="1" fold="1" page="1" pageScale="1" pageWidth="827" pageHeight="1169" math="0" shadow="0">
      <root>
        <mxCell id="0" />
        <mxCell id="1" parent="0" />
        <mxCell id="fukTA5cHyro5TytwK_Kp-1" value="&lt;font color=&quot;#457b9d&quot; face=&quot;Comic Sans MS&quot; style=&quot;font-size: 20px;&quot;&gt;__init__&lt;/font&gt;" style="rounded=1;whiteSpace=wrap;html=1;labelBackgroundColor=none;fillColor=#A8DADC;strokeColor=#457B9D;fontColor=#1D3557;sketch=1;curveFitting=1;jiggle=2;strokeWidth=3;" vertex="1" parent="1">
          <mxGeometry x="70" y="50" width="120" height="60" as="geometry" />
        </mxCell>
        <mxCell id="fukTA5cHyro5TytwK_Kp-3" style="edgeStyle=orthogonalEdgeStyle;rounded=0;sketch=1;hachureGap=4;jiggle=2;curveFitting=1;orthogonalLoop=1;jettySize=auto;html=1;exitX=0.5;exitY=1;exitDx=0;exitDy=0;fontFamily=Architects Daughter;fontSource=https%3A%2F%2Ffonts.googleapis.com%2Fcss%3Ffamily%3DArchitects%2BDaughter;fontSize=16;strokeWidth=3;strokeColor=#457B9D;entryX=0.5;entryY=0;entryDx=0;entryDy=0;" edge="1" parent="1" source="fukTA5cHyro5TytwK_Kp-2" target="fukTA5cHyro5TytwK_Kp-4">
          <mxGeometry relative="1" as="geometry">
            <mxPoint x="240" y="320" as="targetPoint" />
          </mxGeometry>
        </mxCell>
        <mxCell id="fukTA5cHyro5TytwK_Kp-11" style="edgeStyle=orthogonalEdgeStyle;rounded=0;sketch=1;hachureGap=4;jiggle=2;curveFitting=1;orthogonalLoop=1;jettySize=auto;html=1;entryX=0.5;entryY=0;entryDx=0;entryDy=0;fontFamily=Architects Daughter;fontSource=https%3A%2F%2Ffonts.googleapis.com%2Fcss%3Ffamily%3DArchitects%2BDaughter;fontSize=16;strokeWidth=3;strokeColor=#457B9D;" edge="1" parent="1" source="fukTA5cHyro5TytwK_Kp-2" target="fukTA5cHyro5TytwK_Kp-8">
          <mxGeometry relative="1" as="geometry">
            <Array as="points">
              <mxPoint x="450" y="330" />
              <mxPoint x="505" y="330" />
            </Array>
          </mxGeometry>
        </mxCell>
        <mxCell id="fukTA5cHyro5TytwK_Kp-12" style="edgeStyle=orthogonalEdgeStyle;rounded=0;sketch=1;hachureGap=4;jiggle=2;curveFitting=1;orthogonalLoop=1;jettySize=auto;html=1;exitX=0.5;exitY=1;exitDx=0;exitDy=0;entryX=0.5;entryY=0;entryDx=0;entryDy=0;fontFamily=Architects Daughter;fontSource=https%3A%2F%2Ffonts.googleapis.com%2Fcss%3Ffamily%3DArchitects%2BDaughter;fontSize=16;strokeWidth=3;strokeColor=#457B9D;" edge="1" parent="1" source="fukTA5cHyro5TytwK_Kp-2" target="fukTA5cHyro5TytwK_Kp-7">
          <mxGeometry relative="1" as="geometry" />
        </mxCell>
        <mxCell id="fukTA5cHyro5TytwK_Kp-2" value="&lt;font color=&quot;#457b9d&quot; face=&quot;Comic Sans MS&quot; style=&quot;font-size: 20px;&quot;&gt;train&lt;/font&gt;" style="rounded=1;whiteSpace=wrap;html=1;labelBackgroundColor=none;fillColor=#A8DADC;strokeColor=#457B9D;fontColor=#1D3557;sketch=1;curveFitting=1;jiggle=2;strokeWidth=3;" vertex="1" parent="1">
          <mxGeometry x="400" y="200" width="100" height="60" as="geometry" />
        </mxCell>
        <mxCell id="fukTA5cHyro5TytwK_Kp-4" value="&lt;font color=&quot;#b85450&quot; face=&quot;Comic Sans MS&quot; style=&quot;font-size: 20px;&quot;&gt;_initTrain&lt;/font&gt;" style="rounded=1;whiteSpace=wrap;html=1;labelBackgroundColor=none;fillColor=#f8cecc;strokeColor=#b85450;sketch=1;curveFitting=1;jiggle=2;strokeWidth=3;" vertex="1" parent="1">
          <mxGeometry x="120" y="310" width="120" height="60" as="geometry" />
        </mxCell>
        <mxCell id="fukTA5cHyro5TytwK_Kp-19" style="edgeStyle=orthogonalEdgeStyle;rounded=0;sketch=1;hachureGap=4;jiggle=2;curveFitting=1;orthogonalLoop=1;jettySize=auto;html=1;exitX=0.5;exitY=1;exitDx=0;exitDy=0;entryX=0.5;entryY=0;entryDx=0;entryDy=0;fontFamily=Architects Daughter;fontSource=https%3A%2F%2Ffonts.googleapis.com%2Fcss%3Ffamily%3DArchitects%2BDaughter;fontSize=16;strokeWidth=3;strokeColor=#B85450;" edge="1" parent="1" source="fukTA5cHyro5TytwK_Kp-5" target="fukTA5cHyro5TytwK_Kp-18">
          <mxGeometry relative="1" as="geometry" />
        </mxCell>
        <mxCell id="fukTA5cHyro5TytwK_Kp-5" value="&lt;font color=&quot;#b85450&quot; face=&quot;Comic Sans MS&quot; style=&quot;font-size: 20px;&quot;&gt;_sampleEpisode&lt;/font&gt;" style="rounded=1;whiteSpace=wrap;html=1;labelBackgroundColor=none;fillColor=#f8cecc;strokeColor=#b85450;sketch=1;curveFitting=1;jiggle=2;strokeWidth=3;" vertex="1" parent="1">
          <mxGeometry x="580" y="320" width="180" height="60" as="geometry" />
        </mxCell>
        <mxCell id="fukTA5cHyro5TytwK_Kp-17" style="edgeStyle=orthogonalEdgeStyle;rounded=0;sketch=1;hachureGap=4;jiggle=2;curveFitting=1;orthogonalLoop=1;jettySize=auto;html=1;entryX=0.5;entryY=0;entryDx=0;entryDy=0;fontFamily=Architects Daughter;fontSource=https%3A%2F%2Ffonts.googleapis.com%2Fcss%3Ffamily%3DArchitects%2BDaughter;fontSize=16;strokeWidth=3;strokeColor=#B85450;" edge="1" parent="1" source="fukTA5cHyro5TytwK_Kp-6" target="fukTA5cHyro5TytwK_Kp-16">
          <mxGeometry relative="1" as="geometry" />
        </mxCell>
        <mxCell id="fukTA5cHyro5TytwK_Kp-6" value="&lt;font color=&quot;#b85450&quot; face=&quot;Comic Sans MS&quot; style=&quot;font-size: 20px;&quot;&gt;_learn&lt;/font&gt;" style="rounded=1;whiteSpace=wrap;html=1;labelBackgroundColor=none;fillColor=#f8cecc;strokeColor=#b85450;sketch=1;curveFitting=1;jiggle=2;strokeWidth=3;" vertex="1" parent="1">
          <mxGeometry x="170" y="440" width="120" height="60" as="geometry" />
        </mxCell>
        <mxCell id="fukTA5cHyro5TytwK_Kp-7" value="&lt;font color=&quot;#b85450&quot; face=&quot;Comic Sans MS&quot; style=&quot;font-size: 20px;&quot;&gt;_logEpisode&lt;/font&gt;" style="rounded=1;whiteSpace=wrap;html=1;labelBackgroundColor=none;fillColor=#f8cecc;strokeColor=#b85450;sketch=1;curveFitting=1;jiggle=2;strokeWidth=3;" vertex="1" parent="1">
          <mxGeometry x="310" y="350" width="160" height="60" as="geometry" />
        </mxCell>
        <mxCell id="fukTA5cHyro5TytwK_Kp-8" value="&lt;font face=&quot;Comic Sans MS&quot; color=&quot;#b85450&quot;&gt;&lt;span style=&quot;font-size: 20px;&quot;&gt;_logFinal&lt;/span&gt;&lt;/font&gt;" style="rounded=1;whiteSpace=wrap;html=1;labelBackgroundColor=none;fillColor=#f8cecc;strokeColor=#b85450;sketch=1;curveFitting=1;jiggle=2;strokeWidth=3;" vertex="1" parent="1">
          <mxGeometry x="450" y="440" width="110" height="60" as="geometry" />
        </mxCell>
        <mxCell id="fukTA5cHyro5TytwK_Kp-9" value="&lt;font color=&quot;#457b9d&quot; face=&quot;Comic Sans MS&quot; style=&quot;font-size: 20px;&quot;&gt;evaluate&lt;/font&gt;" style="rounded=1;whiteSpace=wrap;html=1;labelBackgroundColor=none;fillColor=#A8DADC;strokeColor=#457B9D;fontColor=#1D3557;sketch=1;curveFitting=1;jiggle=2;strokeWidth=3;" vertex="1" parent="1">
          <mxGeometry x="705" y="170" width="130" height="60" as="geometry" />
        </mxCell>
        <mxCell id="fukTA5cHyro5TytwK_Kp-13" style="edgeStyle=orthogonalEdgeStyle;rounded=0;sketch=1;hachureGap=4;jiggle=2;curveFitting=1;orthogonalLoop=1;jettySize=auto;html=1;exitX=0.5;exitY=1;exitDx=0;exitDy=0;fontFamily=Architects Daughter;fontSource=https%3A%2F%2Ffonts.googleapis.com%2Fcss%3Ffamily%3DArchitects%2BDaughter;fontSize=16;strokeWidth=3;strokeColor=#457B9D;entryX=0.5;entryY=0;entryDx=0;entryDy=0;" edge="1" parent="1" source="fukTA5cHyro5TytwK_Kp-2" target="fukTA5cHyro5TytwK_Kp-5">
          <mxGeometry relative="1" as="geometry">
            <mxPoint x="510" y="330" as="targetPoint" />
            <mxPoint x="780" y="280" as="sourcePoint" />
            <Array as="points">
              <mxPoint x="450" y="290" />
              <mxPoint x="670" y="290" />
            </Array>
          </mxGeometry>
        </mxCell>
        <mxCell id="fukTA5cHyro5TytwK_Kp-14" style="edgeStyle=orthogonalEdgeStyle;rounded=0;sketch=1;hachureGap=4;jiggle=2;curveFitting=1;orthogonalLoop=1;jettySize=auto;html=1;exitX=0.5;exitY=1;exitDx=0;exitDy=0;fontFamily=Architects Daughter;fontSource=https%3A%2F%2Ffonts.googleapis.com%2Fcss%3Ffamily%3DArchitects%2BDaughter;fontSize=16;strokeWidth=3;strokeColor=#457B9D;entryX=0.5;entryY=0;entryDx=0;entryDy=0;" edge="1" parent="1" source="fukTA5cHyro5TytwK_Kp-2" target="fukTA5cHyro5TytwK_Kp-6">
          <mxGeometry relative="1" as="geometry">
            <mxPoint x="690" y="330" as="targetPoint" />
            <mxPoint x="470" y="270" as="sourcePoint" />
            <Array as="points">
              <mxPoint x="450" y="290" />
              <mxPoint x="260" y="290" />
              <mxPoint x="260" y="400" />
              <mxPoint x="230" y="400" />
            </Array>
          </mxGeometry>
        </mxCell>
        <mxCell id="fukTA5cHyro5TytwK_Kp-15" style="edgeStyle=orthogonalEdgeStyle;rounded=0;sketch=1;hachureGap=4;jiggle=2;curveFitting=1;orthogonalLoop=1;jettySize=auto;html=1;exitX=0.5;exitY=1;exitDx=0;exitDy=0;fontFamily=Architects Daughter;fontSource=https%3A%2F%2Ffonts.googleapis.com%2Fcss%3Ffamily%3DArchitects%2BDaughter;fontSize=16;strokeWidth=3;strokeColor=#457B9D;entryX=0.75;entryY=0;entryDx=0;entryDy=0;" edge="1" parent="1" source="fukTA5cHyro5TytwK_Kp-9" target="fukTA5cHyro5TytwK_Kp-5">
          <mxGeometry relative="1" as="geometry">
            <mxPoint x="760" y="290" as="targetPoint" />
            <mxPoint x="540" y="230" as="sourcePoint" />
            <Array as="points">
              <mxPoint x="770" y="260" />
              <mxPoint x="715" y="260" />
            </Array>
          </mxGeometry>
        </mxCell>
        <mxCell id="fukTA5cHyro5TytwK_Kp-16" value="&lt;font color=&quot;#b85450&quot; face=&quot;Comic Sans MS&quot; style=&quot;font-size: 20px;&quot;&gt;_updatePolicy&lt;/font&gt;" style="rounded=1;whiteSpace=wrap;html=1;labelBackgroundColor=none;fillColor=#f8cecc;strokeColor=#b85450;sketch=1;curveFitting=1;jiggle=2;strokeWidth=3;" vertex="1" parent="1">
          <mxGeometry x="230" y="555" width="190" height="60" as="geometry" />
        </mxCell>
        <mxCell id="fukTA5cHyro5TytwK_Kp-22" style="edgeStyle=orthogonalEdgeStyle;rounded=0;sketch=1;hachureGap=4;jiggle=2;curveFitting=1;orthogonalLoop=1;jettySize=auto;html=1;entryX=1;entryY=0.5;entryDx=0;entryDy=0;fontFamily=Architects Daughter;fontSource=https%3A%2F%2Ffonts.googleapis.com%2Fcss%3Ffamily%3DArchitects%2BDaughter;fontSize=16;strokeWidth=3;strokeColor=#B85450;exitX=0.5;exitY=1;exitDx=0;exitDy=0;" edge="1" parent="1" source="fukTA5cHyro5TytwK_Kp-18" target="fukTA5cHyro5TytwK_Kp-21">
          <mxGeometry relative="1" as="geometry">
            <Array as="points">
              <mxPoint x="770" y="575" />
            </Array>
          </mxGeometry>
        </mxCell>
        <mxCell id="fukTA5cHyro5TytwK_Kp-18" value="&lt;font color=&quot;#b85450&quot; face=&quot;Comic Sans MS&quot; style=&quot;font-size: 20px;&quot;&gt;_chooseAction&lt;/font&gt;" style="rounded=1;whiteSpace=wrap;html=1;labelBackgroundColor=none;fillColor=#f8cecc;strokeColor=#b85450;sketch=1;curveFitting=1;jiggle=2;strokeWidth=3;" vertex="1" parent="1">
          <mxGeometry x="680" y="460" width="180" height="60" as="geometry" />
        </mxCell>
        <mxCell id="fukTA5cHyro5TytwK_Kp-20" style="edgeStyle=orthogonalEdgeStyle;rounded=0;sketch=1;hachureGap=4;jiggle=2;curveFitting=1;orthogonalLoop=1;jettySize=auto;html=1;exitX=0.5;exitY=1;exitDx=0;exitDy=0;entryX=0.5;entryY=0;entryDx=0;entryDy=0;fontFamily=Architects Daughter;fontSource=https%3A%2F%2Ffonts.googleapis.com%2Fcss%3Ffamily%3DArchitects%2BDaughter;fontSize=16;strokeWidth=3;strokeColor=#B85450;" edge="1" parent="1" target="fukTA5cHyro5TytwK_Kp-21" source="fukTA5cHyro5TytwK_Kp-5">
          <mxGeometry relative="1" as="geometry">
            <mxPoint x="597" y="440" as="sourcePoint" />
            <Array as="points">
              <mxPoint x="670" y="450" />
              <mxPoint x="595" y="450" />
            </Array>
          </mxGeometry>
        </mxCell>
        <mxCell id="fukTA5cHyro5TytwK_Kp-21" value="&lt;font face=&quot;Comic Sans MS&quot; color=&quot;#b85450&quot;&gt;&lt;span style=&quot;font-size: 20px;&quot;&gt;_castState&lt;/span&gt;&lt;/font&gt;" style="rounded=1;whiteSpace=wrap;html=1;labelBackgroundColor=none;fillColor=#f8cecc;strokeColor=#b85450;sketch=1;curveFitting=1;jiggle=2;strokeWidth=3;" vertex="1" parent="1">
          <mxGeometry x="520" y="545" width="150" height="60" as="geometry" />
        </mxCell>
        <mxCell id="fukTA5cHyro5TytwK_Kp-25" value="&lt;font color=&quot;#457b9d&quot; style=&quot;font-size: 20px;&quot; face=&quot;Comic Sans MS&quot;&gt;converged&lt;/font&gt;" style="ellipse;whiteSpace=wrap;html=1;rounded=1;shadow=0;glass=0;labelBackgroundColor=none;sketch=1;jiggle=2;curveFitting=1;strokeColor=#457B9D;strokeWidth=3;fontFamily=Helvetica;fontSize=12;fontColor=#1D3557;fillColor=#A8DADC;" vertex="1" parent="1">
          <mxGeometry x="190" y="140" width="120" height="80" as="geometry" />
        </mxCell>
        <mxCell id="fukTA5cHyro5TytwK_Kp-26" value="&lt;font color=&quot;#457b9d&quot; face=&quot;Comic Sans MS&quot; style=&quot;font-size: 20px;&quot;&gt;loadModels&lt;/font&gt;" style="rounded=1;whiteSpace=wrap;html=1;labelBackgroundColor=none;fillColor=#A8DADC;strokeColor=#457B9D;fontColor=#1D3557;sketch=1;curveFitting=1;jiggle=2;strokeWidth=3;" vertex="1" parent="1">
          <mxGeometry x="540" y="100" width="155" height="60" as="geometry" />
        </mxCell>
        <mxCell id="fukTA5cHyro5TytwK_Kp-27" value="&lt;font color=&quot;#457b9d&quot; face=&quot;Comic Sans MS&quot; style=&quot;font-size: 20px;&quot;&gt;saveModels&lt;/font&gt;" style="rounded=1;whiteSpace=wrap;html=1;labelBackgroundColor=none;fillColor=#A8DADC;strokeColor=#457B9D;fontColor=#1D3557;sketch=1;curveFitting=1;jiggle=2;strokeWidth=3;" vertex="1" parent="1">
          <mxGeometry x="336" y="40" width="155" height="60" as="geometry" />
        </mxCell>
        <mxCell id="fukTA5cHyro5TytwK_Kp-31" style="edgeStyle=orthogonalEdgeStyle;rounded=0;sketch=1;hachureGap=4;jiggle=2;curveFitting=1;orthogonalLoop=1;jettySize=auto;html=1;entryX=0;entryY=0.5;entryDx=0;entryDy=0;fontFamily=Helvetica;fontSource=https%3A%2F%2Ffonts.googleapis.com%2Fcss%3Ffamily%3DArchitects%2BDaughter;fontSize=12;fontColor=#1D3557;strokeWidth=3;strokeColor=#457B9D;" edge="1" parent="1" source="fukTA5cHyro5TytwK_Kp-29" target="fukTA5cHyro5TytwK_Kp-30">
          <mxGeometry relative="1" as="geometry" />
        </mxCell>
        <mxCell id="fukTA5cHyro5TytwK_Kp-32" value="calls" style="edgeLabel;html=1;align=center;verticalAlign=middle;resizable=0;points=[];fontSize=20;fontFamily=Comic Sans MS;fontColor=#457B9D;labelBorderColor=none;labelBackgroundColor=none;" vertex="1" connectable="0" parent="fukTA5cHyro5TytwK_Kp-31">
          <mxGeometry x="-0.1664" relative="1" as="geometry">
            <mxPoint x="8" y="-20" as="offset" />
          </mxGeometry>
        </mxCell>
        <mxCell id="fukTA5cHyro5TytwK_Kp-29" value="&lt;font color=&quot;#457b9d&quot; face=&quot;Comic Sans MS&quot; style=&quot;font-size: 20px;&quot;&gt;public&lt;/font&gt;" style="rounded=1;whiteSpace=wrap;html=1;labelBackgroundColor=none;fillColor=#A8DADC;strokeColor=#457B9D;fontColor=#1D3557;sketch=1;curveFitting=1;jiggle=2;strokeWidth=3;" vertex="1" parent="1">
          <mxGeometry x="20" y="750" width="100" height="60" as="geometry" />
        </mxCell>
        <mxCell id="fukTA5cHyro5TytwK_Kp-30" value="&lt;font color=&quot;#b85450&quot; face=&quot;Comic Sans MS&quot; style=&quot;font-size: 20px;&quot;&gt;_private&lt;/font&gt;" style="rounded=1;whiteSpace=wrap;html=1;labelBackgroundColor=none;fillColor=#f8cecc;strokeColor=#b85450;sketch=1;curveFitting=1;jiggle=2;strokeWidth=3;" vertex="1" parent="1">
          <mxGeometry x="230" y="750" width="140" height="60" as="geometry" />
        </mxCell>
        <mxCell id="fukTA5cHyro5TytwK_Kp-33" value="LEGEND" style="text;html=1;strokeColor=none;fillColor=none;align=center;verticalAlign=middle;whiteSpace=wrap;rounded=0;fontSize=25;fontFamily=Comic Sans MS;fontColor=#1D3557;" vertex="1" parent="1">
          <mxGeometry x="50" y="560" width="60" height="30" as="geometry" />
        </mxCell>
        <mxCell id="fukTA5cHyro5TytwK_Kp-35" value="&lt;font color=&quot;#457b9d&quot; style=&quot;font-size: 20px;&quot; face=&quot;Comic Sans MS&quot;&gt;attribute&lt;/font&gt;" style="ellipse;whiteSpace=wrap;html=1;rounded=1;shadow=0;glass=0;labelBackgroundColor=none;sketch=1;jiggle=2;curveFitting=1;strokeColor=#457B9D;strokeWidth=3;fontFamily=Helvetica;fontSize=12;fontColor=#1D3557;fillColor=#A8DADC;" vertex="1" parent="1">
          <mxGeometry x="30" y="630" width="120" height="80" as="geometry" />
        </mxCell>
      </root>
    </mxGraphModel>
  </diagram>
</mxfile>
